# Blender v2.92.0 OBJ File: ''
# www.blender.org
mtllib trident.mtl
o Cube_Cube.001
v 0.122856 0.248362 -0.122856
v 0.026366 -0.248362 -0.026366
v 0.122856 0.248362 0.122856
v 0.026366 -0.248362 0.026366
v -0.122856 0.248362 -0.122856
v -0.026366 -0.248362 -0.026366
v -0.122856 0.248362 0.122856
v -0.026366 -0.248362 0.026366
v 0.091421 0.563367 0.091421
v 0.091421 0.563367 -0.091421
v -0.091421 0.563367 0.091421
v -0.091421 0.563367 -0.091421
v 0.056147 2.744938 0.058956
v 0.062556 2.395610 -0.062556
v -0.055909 2.744938 0.058956
v -0.062556 2.395610 -0.062556
v 0.040897 2.905614 0.043706
v 0.063994 2.922089 -0.063994
v -0.040659 2.905614 0.043706
v -0.063994 2.922089 -0.063994
v 0.000000 3.833742 0.000000
v 0.000000 3.833742 0.000000
v 0.000000 3.833742 0.000000
v 0.000000 3.833742 0.000000
v -0.062556 2.395610 0.062556
v 0.062556 2.395610 0.062556
v -0.063994 2.922089 0.063994
v 0.063994 2.922089 0.063994
v -0.055909 2.748107 0.092344
v 0.056147 2.748107 0.092344
v -0.040659 2.908783 0.077094
v 0.040897 2.908783 0.077094
v -0.043160 3.207484 0.410272
v 0.043397 3.207484 0.410272
v -0.031380 3.206657 0.285603
v 0.031618 3.206657 0.285603
v 0.000119 3.921910 0.147754
v 0.000119 3.921910 0.147754
v 0.000119 3.921910 0.147754
v 0.000119 3.921910 0.147754
v -0.055915 2.745431 -0.061211
v 0.056141 2.745431 -0.061211
v -0.040665 2.906108 -0.045961
v 0.040891 2.906108 -0.045961
v 0.056141 2.748600 -0.094599
v -0.055915 2.748600 -0.094599
v 0.040891 2.909276 -0.079349
v -0.040665 2.909276 -0.079349
v 0.043391 3.207977 -0.412527
v -0.043166 3.207977 -0.412527
v 0.031612 3.207150 -0.287858
v -0.031386 3.207150 -0.287858
v 0.000113 3.922403 -0.150009
v 0.000113 3.922403 -0.150009
v 0.000113 3.922403 -0.150009
v 0.000113 3.922403 -0.150009
v 0.056141 2.745431 -0.061211
v -0.055915 2.745431 -0.061211
v 0.040891 2.906108 -0.045961
v -0.040665 2.906108 -0.045961
v 0.056141 2.748600 -0.094599
v -0.055915 2.748600 -0.094599
v 0.040891 2.909276 -0.079349
v -0.040665 2.909276 -0.079349
v 0.043391 3.207977 -0.412527
v -0.043166 3.207977 -0.412527
v 0.031612 3.207150 -0.287858
v -0.031386 3.207150 -0.287858
v 0.000113 3.922403 -0.150009
v 0.000113 3.922403 -0.150009
v 0.000113 3.922403 -0.150009
v 0.000113 3.922403 -0.150009
vt 0.568902 0.679637
vt 0.568902 0.679637
vt 0.568902 0.679637
vt 0.568902 0.679637
vt 0.563980 0.677176
vt 0.563980 0.677176
vt 0.563980 0.677176
vt 0.563980 0.677176
vt 0.568902 0.655029
vt 0.568902 0.655029
vt 0.568902 0.655029
vt 0.568902 0.655029
vt 0.571363 0.682098
vt 0.571363 0.682098
vt 0.571363 0.682098
vt 0.571363 0.682098
vt 0.312981 0.812519
vt 0.312981 0.812519
vt 0.312981 0.812519
vt 0.312981 0.812519
vt 0.312981 0.812519
vt 0.312981 0.812519
vt 0.312981 0.812519
vt 0.312981 0.812519
vt 0.312981 0.812519
vt 0.312981 0.812519
vt 0.312981 0.812519
vt 0.312981 0.812519
vt 0.312981 0.812519
vt 0.312981 0.812519
vt 0.221932 0.797755
vt 0.221932 0.797755
vt 0.221932 0.797755
vt 0.221932 0.797755
vt 0.312981 0.812519
vt 0.312981 0.812519
vt 0.563980 0.682098
vt 0.563980 0.682098
vt 0.563980 0.682098
vt 0.563980 0.682098
vt 0.214549 0.807598
vt 0.214549 0.807598
vt 0.214549 0.807598
vt 0.214549 0.807598
vt 0.221932 0.797755
vt 0.221932 0.797755
vt 0.194863 0.800216
vt 0.194863 0.800216
vt 0.194863 0.800216
vt 0.194863 0.800216
vt 0.312981 0.812519
vt 0.312981 0.812519
vt 0.312981 0.812519
vt 0.312981 0.812519
vt 0.563980 0.682098
vt 0.563980 0.682098
vt 0.563980 0.682098
vt 0.563980 0.682098
vt 0.310520 0.822363
vt 0.310520 0.822363
vt 0.310520 0.822363
vt 0.310520 0.822363
vt 0.310520 0.822363
vt 0.310520 0.822363
vt 0.310520 0.822363
vt 0.310520 0.822363
vt 0.312981 0.807598
vt 0.312981 0.807598
vt 0.312981 0.807598
vt 0.312981 0.807598
vt 0.180098 0.822363
vt 0.180098 0.822363
vt 0.180098 0.822363
vt 0.180098 0.822363
vt 0.194863 0.800216
vt 0.194863 0.800216
vt 0.194863 0.800216
vt 0.194863 0.800216
vt 0.551676 0.694402
vt 0.551676 0.694402
vt 0.551676 0.694402
vt 0.551676 0.694402
vt 0.180098 0.822363
vt 0.180098 0.822363
vt 0.180098 0.822363
vt 0.180098 0.822363
vt 0.312981 0.812519
vt 0.312981 0.812519
vt 0.312981 0.812519
vt 0.312981 0.812519
vt 0.551676 0.694402
vt 0.551676 0.694402
vt 0.551676 0.694402
vt 0.551676 0.694402
vt 0.312981 0.812519
vt 0.312981 0.812519
vt 0.312981 0.812519
vt 0.312981 0.812519
vt 0.312981 0.812519
vt 0.312981 0.812519
vt 0.312981 0.812519
vt 0.312981 0.812519
vt 0.312981 0.812519
vt 0.312981 0.812519
vt 0.312981 0.812519
vt 0.312981 0.812519
vt 0.312981 0.812519
vt 0.312981 0.812519
vt 0.312981 0.812519
vt 0.312981 0.812519
vt 0.194863 0.800216
vt 0.194863 0.800216
vt 0.194863 0.800216
vt 0.194863 0.800216
vt 0.180098 0.822363
vt 0.180098 0.822363
vt 0.180098 0.822363
vt 0.180098 0.822363
vt 0.194863 0.800216
vt 0.194863 0.800216
vt 0.194863 0.800216
vt 0.194863 0.800216
vt 0.551676 0.694402
vt 0.551676 0.694402
vt 0.551676 0.694402
vt 0.551676 0.694402
vt 0.180098 0.822363
vt 0.180098 0.822363
vt 0.180098 0.822363
vt 0.180098 0.822363
vt 0.551676 0.694402
vt 0.551676 0.694402
vt 0.551676 0.694402
vt 0.551676 0.694402
vt 0.312981 0.812519
vt 0.312981 0.812519
vt 0.312981 0.812519
vt 0.312981 0.812519
vt 0.312981 0.812519
vt 0.312981 0.812519
vt 0.312981 0.812519
vt 0.312981 0.812519
vn 0.9817 -0.1907 0.0000
vn 0.0000 -0.1907 0.9817
vn -0.9817 -0.1907 0.0000
vn 0.0000 -0.1907 -0.9817
vn 0.9951 0.0993 0.0000
vn 0.0000 -1.0000 0.0000
vn -0.9999 0.0158 0.0000
vn -0.9951 0.0993 0.0000
vn 0.0000 0.0993 -0.9951
vn 0.0000 0.0993 0.9951
vn -1.0000 -0.0027 0.0000
vn 0.9999 0.0158 0.0000
vn 0.0000 0.0158 -0.9999
vn 0.0000 0.0158 0.9999
vn 0.0000 0.0700 -0.9975
vn 1.0000 -0.0027 0.0000
vn 0.0000 -0.0027 -1.0000
vn 0.0000 -0.9955 0.0945
vn 0.0000 0.0000 1.0000
vn 0.0000 0.0700 0.9975
vn -0.9975 0.0700 0.0000
vn 0.9975 0.0700 0.0000
vn 0.0000 0.0103 0.9999
vn 0.0000 -0.7763 0.6304
vn 0.5940 0.0042 0.8044
vn -0.6019 0.0040 0.7985
vn 0.9920 0.0903 -0.0884
vn 0.9956 0.0936 -0.0089
vn 0.0000 0.9955 -0.0945
vn -0.9956 0.0936 -0.0089
vn -0.9952 0.0257 -0.0942
vn 0.0000 0.5735 -0.8192
vn -0.9920 0.0903 -0.0884
vn 0.0000 -0.5691 0.8223
vn 0.0000 0.3449 0.9386
vn 0.9952 0.0257 -0.0942
vn 0.0000 -0.1892 -0.9819
vn 0.0000 0.9955 0.0945
vn 0.9920 -0.0903 -0.0884
vn 0.9956 -0.0936 -0.0089
vn 0.0000 -0.9955 -0.0945
vn -0.9956 -0.0936 -0.0089
vn -0.9952 -0.0257 -0.0942
vn 0.0000 -0.5735 -0.8192
vn -0.9920 -0.0903 -0.0884
vn 0.0000 0.5691 0.8223
vn 0.0000 -0.3449 0.9386
vn 0.9952 -0.0257 -0.0942
vn 0.0000 0.1892 -0.9819
vn -0.9920 0.0903 0.0884
vn -0.9956 0.0936 0.0089
vn 0.9956 0.0936 0.0089
vn 0.9952 0.0257 0.0942
vn 0.0000 0.5735 0.8192
vn 0.9920 0.0903 0.0884
vn 0.0000 -0.5691 -0.8223
vn 0.0000 0.3449 -0.9386
vn -0.9952 0.0257 0.0942
vn 0.0000 -0.1892 0.9819
usemtl Material.001
s off
f 1/1/1 3/2/1 4/3/1 2/4/1
f 3/5/2 7/6/2 8/7/2 4/8/2
f 7/9/3 5/10/3 6/11/3 8/12/3
f 5/13/4 1/14/4 2/15/4 6/16/4
f 1/17/5 10/18/5 9/19/5 3/20/5
f 8/21/6 6/22/6 2/23/6 4/24/6
f 11/25/7 25/26/7 16/27/7 12/28/7
f 7/29/8 11/25/8 12/28/8 5/30/8
f 5/30/9 12/28/9 10/18/9 1/17/9
f 3/20/10 9/19/10 11/25/10 7/29/10
f 25/31/11 27/32/11 20/33/11 16/34/11
f 10/18/12 14/35/12 26/36/12 9/19/12
f 12/28/13 16/27/13 14/35/13 10/18/13
f 9/19/14 26/36/14 25/26/14 11/25/14
f 20/37/15 24/38/15 22/39/15 18/40/15
f 14/41/16 18/42/16 28/43/16 26/44/16
f 16/34/17 20/33/17 18/45/17 14/46/17
f 13/47/18 30/48/18 29/49/18 15/50/18
f 21/51/19 22/52/19 24/53/19 23/54/19
f 28/55/20 21/56/20 23/57/20 27/58/20
f 27/58/21 23/57/21 24/38/21 20/37/21
f 18/40/22 22/39/22 21/56/22 28/55/22
f 15/59/23 25/60/23 26/61/23 13/62/23
f 17/63/24 28/64/24 27/65/24 19/66/24
f 19/67/25 27/68/25 25/69/25 15/70/25
f 13/62/26 26/61/26 28/64/26 17/63/26
f 32/71/27 36/72/27 34/73/27 30/74/27
f 17/75/28 32/76/28 30/48/28 13/47/28
f 19/77/29 31/78/29 32/76/29 17/75/29
f 15/50/30 29/49/30 31/78/30 19/77/30
f 33/79/31 37/80/31 39/81/31 35/82/31
f 31/83/32 35/84/32 36/72/32 32/71/32
f 29/85/33 33/86/33 35/84/33 31/83/33
f 30/74/34 34/73/34 33/86/34 29/85/34
f 38/87/19 40/88/19 39/89/19 37/90/19
f 34/91/35 38/92/35 37/80/35 33/79/35
f 36/93/36 40/94/36 38/92/36 34/91/36
f 35/82/37 39/81/37 40/94/37 36/93/37
f 41/95/38 42/96/38 45/97/38 46/98/38
f 48/99/39 46/98/39 50/100/39 52/101/39
f 43/102/40 41/95/40 46/98/40 48/99/40
f 44/103/41 43/102/41 48/99/41 47/104/41
f 42/96/42 44/103/42 47/104/42 45/97/42
f 49/105/43 51/106/43 55/107/43 53/108/43
f 47/104/44 48/99/44 52/101/44 51/106/44
f 45/97/45 47/104/45 51/106/45 49/105/45
f 46/98/46 45/97/46 49/105/46 50/100/46
f 50/100/47 49/105/47 53/108/47 54/109/47
f 52/101/48 50/100/48 54/109/48 56/110/48
f 51/106/49 52/101/49 56/110/49 55/107/49
f 58/111/41 62/112/41 61/113/41 57/114/41
f 64/115/50 68/116/50 66/117/50 62/118/50
f 60/119/51 64/120/51 62/112/51 58/111/51
f 59/121/38 63/122/38 64/120/38 60/119/38
f 57/114/52 61/113/52 63/122/52 59/121/52
f 65/123/53 69/124/53 71/125/53 67/126/53
f 63/127/54 67/128/54 68/116/54 64/115/54
f 61/129/55 65/130/55 67/128/55 63/127/55
f 62/118/56 66/117/56 65/130/56 61/129/56
f 66/131/57 70/132/57 69/124/57 65/123/57
f 68/133/58 72/134/58 70/132/58 66/131/58
f 67/126/59 71/125/59 72/134/59 68/133/59
f 54/109/19 70/135/19 72/136/19 56/110/19
f 44/103/19 59/137/19 60/138/19 43/102/19
f 56/110/19 72/136/19 71/139/19 55/107/19
f 42/96/19 57/140/19 59/137/19 44/103/19
f 55/107/19 71/139/19 69/141/19 53/108/19
f 41/95/19 58/142/19 57/140/19 42/96/19
f 53/108/19 69/141/19 70/135/19 54/109/19
f 43/102/19 60/138/19 58/142/19 41/95/19
