# Blender v2.92.0 OBJ File: 'Korobka.blend'
# www.blender.org
mtllib Korobka.mtl
o Cube_Cube.007
v -2.222077 0.840663 0.937010
v -2.222077 2.840663 0.937010
v -2.222077 0.840663 -1.062990
v -2.222077 2.840663 -1.062990
v -0.222077 0.840663 0.937010
v -0.222077 2.840663 0.937010
v -0.222077 0.840663 -1.062990
v -0.222077 2.840663 -1.062990
v -2.222077 0.840663 -0.062990
v -2.222077 1.840663 0.937010
v -2.222077 2.840663 -0.062990
v -2.222077 1.840663 -1.062990
v -1.222077 0.840663 -1.062990
v -1.222077 2.840663 -1.062990
v -0.222077 1.840663 -1.062990
v -0.222077 0.840663 -0.062990
v -0.222077 2.840663 -0.062990
v -0.222077 1.840663 0.937010
v -1.222077 0.840663 0.937010
v -1.222077 2.840663 0.937010
v -1.222077 1.840663 0.937010
v -0.222077 1.840663 -0.062990
v -1.222077 1.840663 -1.062990
v -2.222077 1.840663 -0.062990
v -2.222077 0.840663 0.437010
v -2.222077 2.340663 0.937010
v -2.222077 2.840663 -0.562990
v -2.222077 1.340663 -1.062990
v -1.722077 0.840663 -1.062990
v -0.722077 2.840663 -1.062990
v -0.222077 1.340663 -1.062990
v -0.222077 0.840663 -0.562990
v -0.222077 2.840663 0.437010
v -0.222077 1.340663 0.937010
v -0.722077 0.840663 0.937010
v -1.722077 2.840663 0.937010
v -2.222077 0.840663 -0.562990
v -2.222077 1.340663 0.937010
v -2.222077 2.840663 0.437010
v -2.222077 2.340663 -1.062990
v -0.722077 0.840663 -1.062990
v -1.722077 2.840663 -1.062990
v -0.222077 2.340663 -1.062990
v -0.222077 0.840663 0.437010
v -0.222077 2.840663 -0.562990
v -0.222077 2.340663 0.937010
v -1.722077 0.840663 0.937010
v -0.722077 2.840663 0.937010
v -1.222077 2.840663 0.437010
v -1.222077 2.840663 -0.562990
v -0.722077 2.840663 -0.062990
v -1.722077 2.840663 -0.062990
v -1.222077 0.840663 0.437010
v -1.222077 0.840663 -0.562990
v -1.722077 0.840663 -0.062990
v -0.722077 0.840663 -0.062990
v -1.722077 1.840663 0.937010
v -0.722077 1.840663 0.937010
v -1.222077 2.340663 0.937010
v -0.222077 1.840663 0.437010
v -0.222077 1.840663 -0.562990
v -0.222077 2.340663 -0.062990
v -0.722077 1.840663 -1.062990
v -1.722077 1.840663 -1.062990
v -1.222077 2.340663 -1.062990
v -2.222077 1.840663 -0.562990
v -2.222077 1.840663 0.437010
v -2.222077 2.340663 -0.062990
v -2.222077 2.340663 0.437010
v -2.222077 1.340663 0.437010
v -2.222077 1.340663 -0.562990
v -1.722077 2.340663 -1.062990
v -1.722077 1.340663 -1.062990
v -0.722077 1.340663 -1.062990
v -0.222077 2.340663 -0.562990
v -0.222077 1.340663 -0.562990
v -0.222077 1.340663 0.437010
v -0.722077 2.340663 0.937010
v -0.722077 1.340663 0.937010
v -1.722077 1.340663 0.937010
v -0.722077 0.840663 -0.562990
v -1.722077 0.840663 -0.562990
v -1.722077 0.840663 0.437010
v -1.722077 2.840663 -0.562990
v -0.722077 2.840663 -0.562990
v -0.722077 2.840663 0.437010
v -1.722077 2.840663 0.437010
v -0.722077 0.840663 0.437010
v -1.722077 2.340663 0.937010
v -0.222077 2.340663 0.437010
v -0.722077 2.340663 -1.062990
v -2.222077 2.340663 -0.562990
vt 0.189961 0.803838
vt 0.189961 0.803838
vt 0.189961 0.803838
vt 0.189961 0.803838
vt 0.189961 0.803838
vt 0.189961 0.803838
vt 0.189961 0.803838
vt 0.189961 0.803838
vt 0.189961 0.803838
vt 0.189961 0.803838
vt 0.189961 0.803838
vt 0.189961 0.803838
vt 0.189961 0.803838
vt 0.189961 0.803838
vt 0.189961 0.803838
vt 0.189961 0.803838
vt 0.189961 0.803838
vt 0.189961 0.803838
vt 0.189961 0.803838
vt 0.189961 0.803838
vt 0.189961 0.803838
vt 0.189961 0.803838
vt 0.189961 0.803838
vt 0.189961 0.803838
vt 0.189961 0.803838
vt 0.189961 0.803838
vt 0.189961 0.803838
vt 0.189961 0.803838
vt 0.189961 0.803838
vt 0.189961 0.803838
vt 0.189961 0.803838
vt 0.189961 0.803838
vt 0.189961 0.803838
vt 0.189961 0.803838
vt 0.189961 0.803838
vt 0.189961 0.803838
vt 0.189961 0.803838
vt 0.189961 0.803838
vt 0.189961 0.803838
vt 0.189961 0.803838
vt 0.189961 0.803838
vt 0.189961 0.803838
vt 0.189961 0.803838
vt 0.189961 0.803838
vt 0.189961 0.803838
vt 0.189961 0.803838
vt 0.189961 0.803838
vt 0.189961 0.803838
vt 0.189961 0.803838
vt 0.189961 0.803838
vt 0.189961 0.803838
vt 0.189961 0.803838
vt 0.189961 0.803838
vt 0.189961 0.803838
vt 0.189961 0.803838
vt 0.189961 0.803838
vt 0.189961 0.803838
vt 0.189961 0.803838
vt 0.189961 0.803838
vt 0.189961 0.803838
vt 0.189961 0.803838
vt 0.189961 0.803838
vt 0.189961 0.803838
vt 0.189961 0.803838
vt 0.189961 0.803838
vt 0.189961 0.803838
vt 0.189961 0.803838
vt 0.189961 0.803838
vt 0.189961 0.803838
vt 0.189961 0.803838
vt 0.189961 0.803838
vt 0.189961 0.803838
vt 0.189961 0.803838
vt 0.189961 0.803838
vt 0.189961 0.803838
vt 0.189961 0.803838
vt 0.189961 0.803838
vt 0.189961 0.803838
vt 0.189961 0.803838
vt 0.189961 0.803838
vt 0.189961 0.803838
vt 0.189961 0.803838
vt 0.189961 0.803838
vt 0.189961 0.803838
vt 0.189961 0.803838
vt 0.189961 0.803838
vt 0.189961 0.803838
vt 0.189961 0.803838
vt 0.189961 0.803838
vt 0.189961 0.803838
vt 0.189961 0.803838
vt 0.189961 0.803838
vn -1.0000 0.0000 0.0000
vn 0.0000 0.0000 -1.0000
vn 1.0000 0.0000 0.0000
vn 0.0000 0.0000 1.0000
vn 0.0000 -1.0000 0.0000
vn 0.0000 1.0000 0.0000
usemtl Material
s off
f 92/1/1 27/2/1 4/3/1 40/4/1
f 91/5/2 30/6/2 8/7/2 43/8/2
f 90/9/3 33/10/3 6/11/3 46/12/3
f 89/13/4 36/14/4 2/15/4 26/16/4
f 88/17/5 44/18/5 5/19/5 35/20/5
f 87/21/6 39/22/6 2/15/6 36/14/6
f 86/23/6 49/24/6 20/25/6 48/26/6
f 84/27/6 27/2/6 11/28/6 52/29/6
f 83/30/5 53/31/5 19/32/5 47/33/5
f 81/34/5 32/35/5 16/36/5 56/37/5
f 80/38/4 57/39/4 10/40/4 38/41/4
f 78/42/4 48/26/4 20/25/4 59/43/4
f 77/44/3 60/45/3 18/46/3 34/47/3
f 75/48/3 45/49/3 17/50/3 62/51/3
f 74/52/2 63/53/2 15/54/2 31/55/2
f 72/56/2 42/57/2 14/58/2 65/59/2
f 71/60/1 66/61/1 12/62/1 28/63/1
f 69/64/1 39/22/1 11/28/1 68/65/1
f 67/66/1 69/64/1 68/65/1 24/67/1
f 10/40/1 26/16/1 69/64/1 67/66/1
f 26/16/1 2/15/1 39/22/1 69/64/1
f 1/68/1 38/41/1 70/69/1 25/70/1
f 38/41/1 10/40/1 67/66/1 70/69/1
f 37/71/1 71/60/1 28/63/1 3/72/1
f 64/73/2 72/56/2 65/59/2 23/74/2
f 12/62/2 40/4/2 72/56/2 64/73/2
f 40/4/2 4/3/2 42/57/2 72/56/2
f 3/72/2 28/63/2 73/75/2 29/76/2
f 28/63/2 12/62/2 64/73/2 73/75/2
f 41/77/2 74/52/2 31/55/2 7/78/2
f 61/79/3 75/48/3 62/51/3 22/80/3
f 15/54/3 43/8/3 75/48/3 61/79/3
f 43/8/3 8/7/3 45/49/3 75/48/3
f 7/78/3 31/55/3 76/81/3 32/35/3
f 31/55/3 15/54/3 61/79/3 76/81/3
f 44/18/3 77/44/3 34/47/3 5/19/3
f 58/82/4 78/42/4 59/43/4 21/83/4
f 18/46/4 46/12/4 78/42/4 58/82/4
f 46/12/4 6/11/4 48/26/4 78/42/4
f 5/19/4 34/47/4 79/84/4 35/20/4
f 34/47/4 18/46/4 58/82/4 79/84/4
f 47/33/4 80/38/4 38/41/4 1/68/4
f 13/85/5 41/77/5 81/34/5 54/86/5
f 41/77/5 7/78/5 32/35/5 81/34/5
f 37/71/5 82/87/5 55/88/5 9/89/5
f 3/72/5 29/76/5 82/87/5 37/71/5
f 29/76/5 13/85/5 54/86/5 82/87/5
f 25/70/5 83/30/5 47/33/5 1/68/5
f 9/89/5 55/88/5 83/30/5 25/70/5
f 14/58/6 42/57/6 84/27/6 50/90/6
f 42/57/6 4/3/6 27/2/6 84/27/6
f 45/49/6 85/91/6 51/92/6 17/50/6
f 8/7/6 30/6/6 85/91/6 45/49/6
f 30/6/6 14/58/6 50/90/6 85/91/6
f 33/10/6 86/23/6 48/26/6 6/11/6
f 17/50/6 51/92/6 86/23/6 33/10/6
f 49/24/6 87/21/6 36/14/6 20/25/6
f 52/29/6 11/28/6 39/22/6 87/21/6
f 53/31/5 88/17/5 35/20/5 19/32/5
f 56/37/5 16/36/5 44/18/5 88/17/5
f 57/39/4 89/13/4 26/16/4 10/40/4
f 21/83/4 59/43/4 89/13/4 57/39/4
f 59/43/4 20/25/4 36/14/4 89/13/4
f 60/45/3 90/9/3 46/12/3 18/46/3
f 22/80/3 62/51/3 90/9/3 60/45/3
f 62/51/3 17/50/3 33/10/3 90/9/3
f 63/53/2 91/5/2 43/8/2 15/54/2
f 23/74/2 65/59/2 91/5/2 63/53/2
f 65/59/2 14/58/2 30/6/2 91/5/2
f 66/61/1 92/1/1 40/4/1 12/62/1
f 24/67/1 68/65/1 92/1/1 66/61/1
f 68/65/1 11/28/1 27/2/1 92/1/1
